<svg xmlns="http://www.w3.org/2000/svg" xmlns:xlink="http://www.w3.org/1999/xlink" width="500" zoomAndPan="magnify" viewBox="0 0 375 374.999991" height="500" preserveAspectRatio="xMidYMid meet" version="1.0"><defs><g/><clipPath id="60e9d9fab0"><path d="M 191.25 174 L 211 174 L 211 182 L 191.25 182 Z M 191.25 174 " clip-rule="nonzero"/></clipPath><clipPath id="e6113db92e"><path d="M 191.25 150 L 251.25 150 L 251.25 198.136719 L 191.25 198.136719 Z M 191.25 150 " clip-rule="nonzero"/></clipPath></defs><g fill="#000000" fill-opacity="1"><g transform="translate(20.683786, 183.957161)"><g><path d="M 6.066406 -7.078125 L 3.070312 0.0390625 L 6.367188 0.0390625 L 8.613281 -5.242188 L 21.875 -5.242188 L 24.121094 0.0390625 L 27.453125 0.0390625 L 24.421875 -7.078125 L 23.894531 -8.316406 L 16.253906 -26.21875 L 14.234375 -26.21875 L 6.59375 -8.316406 Z M 15.246094 -20.789062 L 20.5625 -8.316406 L 9.925781 -8.316406 Z M 15.246094 -20.789062 "/></g></g></g><g fill="#000000" fill-opacity="1"><g transform="translate(50.983265, 183.957161)"><g><path d="M 6.105469 -26.21875 L 3.070312 -26.21875 L 3.070312 0.0390625 L 25.882812 0.0390625 L 25.882812 -3.035156 L 6.105469 -3.035156 Z M 6.105469 -26.21875 "/></g></g></g><g fill="#000000" fill-opacity="1"><g transform="translate(79.747164, 183.957161)"><g><path d="M 6.105469 0.0390625 L 6.105469 -26.21875 L 3.070312 -26.21875 L 3.070312 0.0390625 Z M 6.105469 0.0390625 "/></g></g></g><g fill="#000000" fill-opacity="1"><g transform="translate(88.698365, 183.957161)"><g><path d="M 16.179688 -23.148438 C 18.839844 -23.148438 21.386719 -22.097656 23.257812 -20.1875 L 25.433594 -22.359375 C 20.339844 -27.453125 12.023438 -27.453125 6.890625 -22.359375 C 4.417969 -19.886719 3.070312 -16.59375 3.070312 -13.070312 C 3.070312 -9.589844 4.417969 -6.292969 6.890625 -3.820312 C 9.363281 -1.347656 12.660156 0.0390625 16.179688 0.0390625 C 19.664062 0.0390625 22.960938 -1.347656 25.433594 -3.820312 L 23.257812 -5.992188 C 21.386719 -4.082031 18.839844 -3.035156 16.179688 -3.035156 C 13.484375 -3.035156 10.9375 -4.082031 9.0625 -5.992188 C 7.152344 -7.867188 6.105469 -10.414062 6.105469 -13.070312 C 6.105469 -15.769531 7.152344 -18.316406 9.0625 -20.1875 C 10.9375 -22.097656 13.484375 -23.148438 16.179688 -23.148438 Z M 16.179688 -23.148438 "/></g></g></g><g fill="#000000" fill-opacity="1"><g transform="translate(116.937919, 183.957161)"><g><path d="M 25.882812 -23.148438 L 25.882812 -26.21875 L 3.070312 -26.21875 L 3.070312 0.0390625 L 25.882812 0.0390625 L 25.882812 -3.035156 L 6.105469 -3.035156 L 6.105469 -11.574219 L 18.878906 -11.574219 L 18.878906 -14.609375 L 6.105469 -14.609375 L 6.105469 -23.148438 Z M 25.882812 -23.148438 "/></g></g></g><g fill="#000000" fill-opacity="1"><g transform="translate(145.701818, 183.957161)"><g><path d="M 4.457031 -18.164062 L 4.457031 -26.21875 L 1.421875 -26.21875 L 1.421875 -18.164062 Z M 4.457031 -18.164062 "/></g></g></g><g fill="#000000" fill-opacity="1"><g transform="translate(151.357144, 183.957161)"><g><path d="M 18.578125 -3.035156 L 10.375 -3.035156 C 8.015625 -3.035156 6.105469 -4.945312 6.105469 -7.304688 L 3.070312 -7.304688 C 3.070312 -3.257812 6.328125 0.0390625 10.375 0.0390625 L 18.578125 0.0390625 C 22.585938 0.0390625 25.882812 -3.257812 25.882812 -7.304688 C 25.882812 -11.347656 22.585938 -14.609375 18.578125 -14.609375 L 10.375 -14.609375 C 8.015625 -14.609375 6.105469 -16.519531 6.105469 -18.878906 C 6.105469 -21.238281 8.015625 -23.148438 10.375 -23.148438 L 18.578125 -23.148438 C 20.898438 -23.148438 22.808594 -21.238281 22.808594 -18.878906 L 25.882812 -18.878906 C 25.882812 -22.921875 22.585938 -26.21875 18.578125 -26.21875 L 10.375 -26.21875 C 6.328125 -26.21875 3.070312 -22.921875 3.070312 -18.878906 C 3.070312 -14.832031 6.328125 -11.574219 10.375 -11.574219 L 18.578125 -11.574219 C 20.898438 -11.574219 22.808594 -9.664062 22.808594 -7.304688 C 22.808594 -4.945312 20.898438 -3.035156 18.578125 -3.035156 Z M 18.578125 -3.035156 "/></g></g></g><g fill="#000000" fill-opacity="1"><g transform="translate(180.11737, 183.957161)"><g/></g></g><g fill="#000000" fill-opacity="1"><g transform="translate(192.92625, 183.957161)"><g/></g></g><g fill="#000000" fill-opacity="1"><g transform="translate(205.73513, 183.957161)"><g/></g></g><g fill="#000000" fill-opacity="1"><g transform="translate(218.544012, 183.957161)"><g/></g></g><g fill="#000000" fill-opacity="1"><g transform="translate(231.35289, 183.957161)"><g/></g></g><g fill="#000000" fill-opacity="1"><g transform="translate(244.161769, 183.957161)"><g/></g></g><g fill="#000000" fill-opacity="1"><g transform="translate(256.968927, 183.957161)"><g><path d="M 25.882812 -18.878906 C 25.882812 -22.921875 22.585938 -26.21875 18.578125 -26.21875 L 3.070312 -26.21875 L 3.070312 0.0390625 L 6.105469 0.0390625 L 6.105469 -11.574219 L 13.746094 -11.574219 L 23.671875 0.0390625 L 27.679688 0.0390625 L 17.792969 -11.574219 L 18.578125 -11.574219 C 22.585938 -11.574219 25.882812 -14.832031 25.882812 -18.878906 Z M 6.105469 -14.609375 L 6.105469 -23.148438 L 18.578125 -23.148438 C 20.898438 -23.148438 22.808594 -21.238281 22.808594 -18.878906 C 22.808594 -16.519531 20.898438 -14.609375 18.578125 -14.609375 Z M 6.105469 -14.609375 "/></g></g></g><g fill="#000000" fill-opacity="1"><g transform="translate(287.455665, 183.957161)"><g><path d="M 6.105469 0.0390625 L 6.105469 -26.21875 L 3.070312 -26.21875 L 3.070312 0.0390625 Z M 6.105469 0.0390625 "/></g></g></g><g fill="#000000" fill-opacity="1"><g transform="translate(296.406867, 183.957161)"><g><path d="M 22.808594 -5.65625 L 5.28125 -26.21875 L 3.070312 -26.21875 L 3.070312 0.0390625 L 6.105469 0.0390625 L 6.105469 -20.523438 L 23.632812 0.0390625 L 25.882812 0.0390625 L 25.882812 -26.21875 L 22.808594 -26.21875 Z M 22.808594 -5.65625 "/></g></g></g><g fill="#000000" fill-opacity="1"><g transform="translate(325.170766, 183.957161)"><g><path d="M 22.808594 -1.796875 L 22.808594 0.0390625 L 25.882812 0.0390625 L 25.882812 -14.609375 L 13.933594 -14.609375 L 13.933594 -11.574219 L 22.808594 -11.574219 L 22.808594 -5.542969 C 20.976562 -3.933594 18.652344 -3.035156 16.144531 -3.035156 C 13.484375 -3.035156 10.9375 -4.082031 9.0625 -5.992188 C 5.132812 -9.886719 5.132812 -16.292969 9.0625 -20.1875 C 10.9375 -22.097656 13.484375 -23.148438 16.144531 -23.148438 C 18.839844 -23.148438 21.386719 -22.097656 23.257812 -20.1875 L 25.433594 -22.359375 C 20.300781 -27.453125 11.984375 -27.453125 6.890625 -22.359375 C 1.761719 -17.230469 1.761719 -8.914062 6.890625 -3.820312 C 9.363281 -1.347656 12.660156 0.0390625 16.144531 0.0390625 C 18.539062 0.0390625 20.824219 -0.597656 22.808594 -1.796875 Z M 22.808594 -1.796875 "/></g></g></g><g fill="#000000" fill-opacity="1"><g transform="translate(97.008609, 224.12896)"><g><path d="M 4.925781 -5.699219 L 7.390625 -5.699219 C 9.96875 -5.699219 12.269531 -7.601562 12.269531 -10.839844 C 12.269531 -13.863281 9.96875 -15.953125 7.390625 -15.953125 L 1.40625 -15.953125 L 1.40625 0 L 4.925781 0 Z M 6.804688 -13.183594 C 7.835938 -13.183594 8.914062 -12.292969 8.914062 -10.839844 C 8.914062 -9.3125 7.835938 -8.46875 6.804688 -8.46875 L 4.925781 -8.46875 L 4.925781 -13.183594 Z M 6.804688 -13.183594 "/></g></g></g><g fill="#000000" fill-opacity="1"><g transform="translate(109.389709, 224.12896)"><g><path d="M 7.25 -7.742188 C 7.789062 -7.742188 8.304688 -7.578125 8.65625 -7.15625 L 8.703125 -7.15625 L 8.703125 -10.347656 C 8.421875 -10.488281 7.953125 -10.582031 7.648438 -10.582031 C 6.359375 -10.582031 5.464844 -9.851562 4.925781 -9.078125 L 4.925781 -10.347656 L 1.40625 -10.347656 L 1.40625 0 L 4.925781 0 L 4.925781 -5.160156 C 4.925781 -6.40625 5.933594 -7.742188 7.25 -7.742188 Z M 7.25 -7.742188 "/></g></g></g><g fill="#000000" fill-opacity="1"><g transform="translate(118.089268, 224.12896)"><g><path d="M 6.734375 -2.441406 C 4.832031 -2.441406 4.316406 -3.824219 4.316406 -5.136719 C 4.316406 -6.429688 4.878906 -7.8125 6.734375 -7.8125 C 8.5625 -7.8125 9.125 -6.429688 9.125 -5.136719 C 9.125 -3.824219 8.609375 -2.441406 6.734375 -2.441406 Z M 6.734375 -10.558594 C 3.496094 -10.558594 0.820312 -8.398438 0.820312 -5.160156 C 0.820312 -1.851562 3.425781 0.210938 6.734375 0.210938 C 10.015625 0.210938 12.621094 -1.851562 12.621094 -5.160156 C 12.621094 -8.398438 9.945312 -10.558594 6.734375 -10.558594 Z M 6.734375 -10.558594 "/></g></g></g><g fill="#000000" fill-opacity="1"><g transform="translate(131.291095, 224.12896)"><g><path d="M 6.734375 -2.441406 C 4.832031 -2.441406 4.316406 -3.824219 4.316406 -5.136719 C 4.316406 -6.429688 4.878906 -7.8125 6.734375 -7.8125 C 8.5625 -7.8125 9.125 -6.429688 9.125 -5.136719 C 9.125 -3.824219 8.609375 -2.441406 6.734375 -2.441406 Z M 6.734375 -10.558594 C 3.496094 -10.558594 0.820312 -8.398438 0.820312 -5.160156 C 0.820312 -1.851562 3.425781 0.210938 6.734375 0.210938 C 10.015625 0.210938 12.621094 -1.851562 12.621094 -5.160156 C 12.621094 -8.398438 9.945312 -10.558594 6.734375 -10.558594 Z M 6.734375 -10.558594 "/></g></g></g><g fill="#000000" fill-opacity="1"><g transform="translate(144.492918, 224.12896)"><g><path d="M 5.511719 -17.59375 C 3.636719 -17.59375 2.183594 -16.421875 2.183594 -13.863281 L 2.183594 -10.347656 L 0.703125 -10.347656 L 0.703125 -7.625 L 2.183594 -7.625 L 2.183594 0 L 5.699219 0 L 5.699219 -7.625 L 8.117188 -7.625 L 8.117188 -10.347656 L 5.699219 -10.347656 L 5.699219 -13.441406 C 5.699219 -14.453125 5.886719 -14.851562 6.617188 -14.851562 L 8.117188 -14.851562 L 8.117188 -17.59375 Z M 5.511719 -17.59375 "/></g></g></g><g fill="#000000" fill-opacity="1"><g transform="translate(152.770383, 224.12896)"><g/></g></g><g fill="#000000" fill-opacity="1"><g transform="translate(158.398083, 224.12896)"><g><path d="M 6.734375 -2.441406 C 4.832031 -2.441406 4.316406 -3.824219 4.316406 -5.136719 C 4.316406 -6.429688 4.878906 -7.8125 6.734375 -7.8125 C 8.5625 -7.8125 9.125 -6.429688 9.125 -5.136719 C 9.125 -3.824219 8.609375 -2.441406 6.734375 -2.441406 Z M 6.734375 -10.558594 C 3.496094 -10.558594 0.820312 -8.398438 0.820312 -5.160156 C 0.820312 -1.851562 3.425781 0.210938 6.734375 0.210938 C 10.015625 0.210938 12.621094 -1.851562 12.621094 -5.160156 C 12.621094 -8.398438 9.945312 -10.558594 6.734375 -10.558594 Z M 6.734375 -10.558594 "/></g></g></g><g fill="#000000" fill-opacity="1"><g transform="translate(171.599907, 224.12896)"><g><path d="M 5.511719 -17.59375 C 3.636719 -17.59375 2.183594 -16.421875 2.183594 -13.863281 L 2.183594 -10.347656 L 0.703125 -10.347656 L 0.703125 -7.625 L 2.183594 -7.625 L 2.183594 0 L 5.699219 0 L 5.699219 -7.625 L 8.117188 -7.625 L 8.117188 -10.347656 L 5.699219 -10.347656 L 5.699219 -13.441406 C 5.699219 -14.453125 5.886719 -14.851562 6.617188 -14.851562 L 8.117188 -14.851562 L 8.117188 -17.59375 Z M 5.511719 -17.59375 "/></g></g></g><g fill="#000000" fill-opacity="1"><g transform="translate(179.877372, 224.12896)"><g/></g></g><g fill="#000000" fill-opacity="1"><g transform="translate(185.505072, 224.12896)"><g><path d="M 10.980469 -7.203125 C 10.675781 -9.570312 8.679688 -10.582031 5.957031 -10.582031 C 2.535156 -10.582031 0.914062 -9.40625 0.914062 -7.296875 C 0.914062 -3.542969 7.601562 -5.253906 7.601562 -3.074219 C 7.601562 -2.511719 6.921875 -2.207031 6.125 -2.207031 C 5.347656 -2.207031 3.964844 -2.300781 3.964844 -3.847656 L 0.46875 -3.847656 C 0.65625 -0.914062 2.980469 0.234375 6.050781 0.234375 C 9.054688 0.234375 11.144531 -0.65625 11.144531 -3.097656 C 11.144531 -7.460938 4.457031 -5.980469 4.457031 -7.4375 C 4.457031 -8.046875 5.183594 -8.398438 5.863281 -8.398438 C 6.546875 -8.398438 7.414062 -8.140625 7.53125 -7.203125 Z M 10.980469 -7.203125 "/></g></g></g><g fill="#000000" fill-opacity="1"><g transform="translate(197.11235, 224.12896)"><g><path d="M 6.734375 -2.441406 C 4.832031 -2.441406 4.316406 -3.824219 4.316406 -5.136719 C 4.316406 -6.429688 4.878906 -7.8125 6.734375 -7.8125 C 8.5625 -7.8125 9.125 -6.429688 9.125 -5.136719 C 9.125 -3.824219 8.609375 -2.441406 6.734375 -2.441406 Z M 6.734375 -10.558594 C 3.496094 -10.558594 0.820312 -8.398438 0.820312 -5.160156 C 0.820312 -1.851562 3.425781 0.210938 6.734375 0.210938 C 10.015625 0.210938 12.621094 -1.851562 12.621094 -5.160156 C 12.621094 -8.398438 9.945312 -10.558594 6.734375 -10.558594 Z M 6.734375 -10.558594 "/></g></g></g><g fill="#000000" fill-opacity="1"><g transform="translate(210.314174, 224.12896)"><g><path d="M 4.925781 0 L 4.925781 -17.59375 L 1.40625 -17.59375 L 1.40625 0 Z M 4.925781 0 "/></g></g></g><g fill="#000000" fill-opacity="1"><g transform="translate(216.410853, 224.12896)"><g><path d="M 11.800781 -10.347656 L 8.234375 -10.347656 L 5.769531 -2.957031 L 3.308594 -10.347656 L -0.234375 -10.347656 L 3.707031 0 L 7.859375 0 Z M 11.800781 -10.347656 "/></g></g></g><g fill="#000000" fill-opacity="1"><g transform="translate(227.736726, 224.12896)"><g><path d="M 4.597656 -6.40625 C 4.597656 -6.40625 4.714844 -8.328125 6.921875 -8.328125 C 9.054688 -8.328125 9.21875 -6.40625 9.21875 -6.40625 Z M 12.597656 -5.394531 C 12.597656 -8.703125 9.992188 -10.582031 6.851562 -10.582031 C 3.378906 -10.582031 0.820312 -8.398438 0.820312 -5.160156 C 0.820312 -1.875 3.285156 0.234375 6.851562 0.234375 C 9.59375 0.234375 11.800781 -1.125 12.410156 -3.847656 L 8.820312 -3.847656 C 8.796875 -3.097656 8.023438 -2.277344 6.78125 -2.277344 C 5.394531 -2.277344 4.550781 -3.542969 4.550781 -4.738281 L 12.574219 -4.738281 C 12.574219 -4.949219 12.597656 -5.183594 12.597656 -5.394531 Z M 12.597656 -5.394531 "/></g></g></g><g fill="#000000" fill-opacity="1"><g transform="translate(240.915101, 224.12896)"><g><path d="M 11.988281 -5.863281 C 11.988281 -8.679688 10.863281 -10.582031 8.09375 -10.582031 C 6.734375 -10.582031 5.628906 -9.96875 4.925781 -9.078125 L 4.925781 -10.347656 L 1.40625 -10.347656 L 1.40625 0 L 4.925781 0 L 4.925781 -5.160156 C 4.925781 -6.570312 5.792969 -7.742188 6.898438 -7.742188 C 8 -7.742188 8.46875 -7.085938 8.46875 -5.863281 L 8.46875 0 L 11.988281 0 Z M 11.988281 -5.863281 "/></g></g></g><g fill="#000000" fill-opacity="1"><g transform="translate(253.718281, 224.12896)"><g><path d="M 6.6875 -7.835938 C 7.90625 -7.835938 8.679688 -7.203125 8.726562 -6.195312 L 12.222656 -6.195312 C 12.058594 -8.585938 9.921875 -10.582031 6.570312 -10.582031 C 3.121094 -10.582031 0.820312 -8.117188 0.820312 -5.160156 C 0.820312 -2.207031 2.980469 0.234375 6.570312 0.234375 C 9.710938 0.234375 11.800781 -1.546875 12.152344 -3.847656 L 8.726562 -3.847656 C 8.609375 -2.910156 7.765625 -2.441406 6.6875 -2.441406 C 5.042969 -2.441406 4.574219 -3.941406 4.574219 -5.136719 C 4.574219 -6.3125 5.089844 -7.835938 6.6875 -7.835938 Z M 6.6875 -7.835938 "/></g></g></g><g fill="#000000" fill-opacity="1"><g transform="translate(266.427665, 224.12896)"><g><path d="M 5.605469 5.863281 L 7.859375 0 L 11.800781 -10.347656 L 8.234375 -10.347656 L 5.769531 -2.957031 L 3.308594 -10.347656 L -0.234375 -10.347656 L 3.707031 0 L 4.292969 0 L 1.945312 5.863281 Z M 5.605469 5.863281 "/></g></g></g><g clip-path="url(#60e9d9fab0)"><path fill="#000000" d="M 191.785156 174.515625 C 191.785156 174.515625 191.773438 174.605469 191.757812 174.773438 C 191.746094 174.9375 191.734375 175.1875 191.765625 175.503906 C 191.796875 175.820312 191.875 176.203125 192.027344 176.621094 C 192.175781 177.042969 192.402344 177.496094 192.722656 177.945312 C 193.039062 178.398438 193.445312 178.847656 193.953125 179.238281 C 194.078125 179.328125 194.191406 179.433594 194.332031 179.523438 C 194.46875 179.613281 194.609375 179.703125 194.75 179.796875 C 195.042969 179.960938 195.335938 180.128906 195.652344 180.265625 C 196.277344 180.558594 196.953125 180.789062 197.652344 180.960938 C 197.824219 181.007812 198 181.042969 198.175781 181.085938 L 198.453125 181.144531 L 198.71875 181.1875 C 199.070312 181.242188 199.425781 181.296875 199.777344 181.351562 C 199.867188 181.363281 199.953125 181.378906 200.042969 181.390625 L 200.320312 181.410156 L 200.867188 181.449219 C 201.046875 181.460938 201.230469 181.472656 201.410156 181.488281 C 201.5 181.492188 201.589844 181.5 201.679688 181.503906 L 201.949219 181.5 C 202.308594 181.492188 202.664062 181.484375 203.011719 181.476562 L 203.273438 181.472656 L 203.535156 181.449219 C 203.707031 181.429688 203.875 181.414062 204.046875 181.398438 C 204.382812 181.359375 204.71875 181.335938 205.039062 181.277344 C 205.363281 181.21875 205.675781 181.160156 205.980469 181.101562 C 206.132812 181.070312 206.285156 181.042969 206.433594 181.015625 C 206.582031 180.980469 206.722656 180.933594 206.863281 180.898438 C 207.144531 180.816406 207.417969 180.738281 207.679688 180.667969 C 207.808594 180.628906 207.9375 180.59375 208.058594 180.554688 C 208.183594 180.511719 208.300781 180.464844 208.414062 180.421875 C 208.644531 180.332031 208.863281 180.246094 209.070312 180.167969 C 209.273438 180.085938 209.46875 180.023438 209.640625 179.9375 C 209.808594 179.855469 209.96875 179.78125 210.109375 179.710938 C 210.675781 179.433594 210.992188 179.269531 210.992188 179.269531 C 210.992188 179.269531 210.652344 179.394531 210.066406 179.613281 C 209.921875 179.671875 209.761719 179.734375 209.585938 179.800781 C 209.410156 179.867188 209.207031 179.914062 209 179.976562 C 208.792969 180.039062 208.570312 180.105469 208.335938 180.171875 C 208.21875 180.207031 208.101562 180.242188 207.976562 180.277344 C 207.851562 180.304688 207.726562 180.335938 207.59375 180.363281 C 207.335938 180.421875 207.0625 180.480469 206.78125 180.542969 C 206.640625 180.570312 206.5 180.609375 206.355469 180.632812 C 206.207031 180.652344 206.058594 180.675781 205.90625 180.695312 C 205.605469 180.738281 205.296875 180.785156 204.980469 180.832031 C 204.664062 180.875 204.335938 180.878906 204.003906 180.90625 C 203.839844 180.921875 203.671875 180.933594 203.503906 180.945312 L 203.25 180.964844 L 202.996094 180.960938 C 202.652344 180.960938 202.308594 180.957031 201.960938 180.953125 L 201.699219 180.953125 C 201.613281 180.949219 201.527344 180.941406 201.4375 180.9375 C 201.265625 180.921875 201.089844 180.910156 200.917969 180.894531 L 200.132812 180.835938 C 200.042969 180.824219 199.953125 180.808594 199.867188 180.792969 C 199.511719 180.738281 199.15625 180.679688 198.804688 180.625 L 198.542969 180.585938 L 198.296875 180.535156 C 198.125 180.496094 197.953125 180.464844 197.785156 180.417969 C 197.113281 180.257812 196.464844 180.046875 195.863281 179.792969 C 195.558594 179.675781 195.277344 179.519531 194.996094 179.375 C 194.863281 179.296875 194.734375 179.21875 194.605469 179.144531 C 194.472656 179.070312 194.347656 178.96875 194.222656 178.882812 C 193.734375 178.546875 193.328125 178.140625 193 177.742188 C 192.332031 176.929688 192.011719 176.085938 191.886719 175.484375 C 191.824219 175.183594 191.796875 174.941406 191.789062 174.773438 C 191.785156 174.605469 191.785156 174.515625 191.785156 174.515625 " fill-opacity="1" fill-rule="nonzero"/></g><path fill="#000000" d="M 207.496094 160.832031 C 207.359375 160.921875 207.207031 161.011719 207.046875 161.113281 C 206.726562 161.3125 206.355469 161.53125 205.980469 161.804688 C 205.789062 161.9375 205.589844 162.074219 205.382812 162.21875 C 205.179688 162.367188 204.972656 162.527344 204.761719 162.691406 C 204.332031 163.007812 203.90625 163.382812 203.460938 163.757812 C 203.035156 164.160156 202.582031 164.558594 202.160156 165.003906 C 201.726562 165.4375 201.316406 165.910156 200.902344 166.375 C 200.511719 166.859375 200.117188 167.34375 199.757812 167.839844 C 199.574219 168.085938 199.394531 168.328125 199.230469 168.582031 C 199.0625 168.832031 198.894531 169.074219 198.738281 169.320312 C 198.429688 169.816406 198.125 170.289062 197.871094 170.757812 C 197.738281 170.992188 197.613281 171.21875 197.488281 171.4375 C 197.375 171.660156 197.261719 171.875 197.15625 172.082031 C 196.933594 172.488281 196.757812 172.878906 196.59375 173.21875 C 196.433594 173.5625 196.296875 173.859375 196.191406 174.109375 C 195.972656 174.601562 195.851562 174.890625 195.851562 174.890625 C 195.851562 174.890625 196.007812 174.621094 196.269531 174.148438 C 196.398438 173.910156 196.558594 173.621094 196.746094 173.296875 C 196.9375 172.972656 197.144531 172.601562 197.382812 172.207031 C 197.621094 171.808594 197.878906 171.378906 198.160156 170.933594 C 198.4375 170.480469 198.753906 170.023438 199.070312 169.539062 C 199.230469 169.300781 199.40625 169.066406 199.574219 168.820312 C 199.746094 168.578125 199.921875 168.335938 200.105469 168.097656 C 200.460938 167.609375 200.859375 167.140625 201.242188 166.660156 C 201.648438 166.199219 202.042969 165.730469 202.46875 165.300781 C 202.878906 164.855469 203.3125 164.449219 203.722656 164.046875 C 204.15625 163.664062 204.554688 163.273438 204.96875 162.941406 C 205.171875 162.773438 205.367188 162.609375 205.558594 162.449219 C 205.753906 162.296875 205.945312 162.148438 206.128906 162.003906 C 206.488281 161.714844 206.835938 161.46875 207.136719 161.246094 C 207.289062 161.136719 207.433594 161.03125 207.5625 160.933594 C 207.699219 160.84375 207.824219 160.757812 207.933594 160.683594 C 208.382812 160.378906 208.636719 160.199219 208.636719 160.199219 C 208.636719 160.199219 208.363281 160.34375 207.890625 160.613281 C 207.769531 160.679688 207.640625 160.753906 207.496094 160.832031 " fill-opacity="1" fill-rule="nonzero"/><g clip-path="url(#e6113db92e)"><path fill="#000000" d="M 210.371094 174.433594 C 210.375 174.574219 210.382812 174.71875 210.386719 174.859375 C 210.398438 175.027344 210.417969 175.144531 210.429688 175.292969 C 210.4375 175.351562 210.445312 175.414062 210.453125 175.472656 C 205.085938 178.402344 199.578125 179.230469 196.417969 178.457031 C 196.425781 178.386719 196.433594 178.289062 196.445312 178.164062 C 196.464844 177.871094 196.539062 177.46875 196.644531 176.957031 C 196.714844 176.703125 196.777344 176.417969 196.878906 176.117188 C 196.984375 175.816406 197.085938 175.488281 197.238281 175.152344 C 197.511719 174.46875 197.878906 173.722656 198.332031 172.929688 C 198.386719 172.832031 198.445312 172.730469 198.503906 172.632812 C 198.554688 172.546875 198.625 172.4375 198.6875 172.339844 C 198.816406 172.136719 198.949219 171.933594 199.082031 171.726562 C 199.351562 171.3125 199.613281 170.871094 199.917969 170.445312 C 200.546875 169.617188 201.15625 168.703125 201.929688 167.863281 C 202.117188 167.648438 202.300781 167.429688 202.492188 167.210938 C 202.585938 167.101562 202.675781 166.988281 202.777344 166.882812 L 203.085938 166.574219 C 203.5 166.160156 203.917969 165.738281 204.34375 165.316406 C 205.21875 164.492188 206.136719 163.707031 207.109375 162.96875 C 208.082031 162.242188 209.089844 161.550781 210.113281 160.929688 C 211.144531 160.308594 212.171875 159.742188 213.203125 159.230469 C 214.222656 158.726562 215.242188 158.296875 216.234375 157.964844 C 217.226562 157.632812 218.191406 157.40625 219.097656 157.285156 C 219.324219 157.242188 219.546875 157.226562 219.761719 157.207031 C 219.980469 157.1875 220.191406 157.160156 220.398438 157.160156 C 220.609375 157.15625 220.808594 157.148438 221.007812 157.144531 C 221.203125 157.152344 221.394531 157.160156 221.582031 157.164062 C 221.671875 157.171875 221.765625 157.171875 221.855469 157.175781 C 221.945312 157.1875 222.03125 157.195312 222.117188 157.207031 C 222.289062 157.226562 222.457031 157.246094 222.617188 157.261719 C 222.933594 157.3125 223.222656 157.378906 223.488281 157.425781 C 223.746094 157.496094 223.976562 157.5625 224.175781 157.613281 C 224.378906 157.664062 224.539062 157.742188 224.675781 157.789062 C 224.945312 157.890625 225.085938 157.941406 225.085938 157.941406 C 225.085938 157.941406 224.945312 157.882812 224.683594 157.769531 C 224.546875 157.71875 224.390625 157.632812 224.191406 157.574219 C 223.992188 157.511719 223.761719 157.4375 223.503906 157.355469 C 223.242188 157.296875 222.953125 157.222656 222.632812 157.160156 C 222.472656 157.136719 222.304688 157.109375 222.132812 157.085938 C 222.046875 157.070312 221.957031 157.058594 221.867188 157.046875 C 221.777344 157.039062 221.683594 157.03125 221.589844 157.023438 C 221.402344 157.011719 221.210938 156.996094 221.011719 156.980469 C 220.8125 156.980469 220.605469 156.980469 220.394531 156.976562 C 220.183594 156.96875 219.964844 156.988281 219.742188 157 C 219.519531 157.011719 219.292969 157.023438 219.066406 157.058594 C 218.144531 157.15625 217.15625 157.367188 216.144531 157.679688 C 215.125 157.992188 214.085938 158.40625 213.035156 158.894531 C 212.769531 159.011719 212.511719 159.144531 212.25 159.269531 C 211.984375 159.402344 211.726562 159.542969 211.460938 159.679688 C 211.199219 159.816406 210.933594 159.957031 210.675781 160.109375 C 210.414062 160.261719 210.148438 160.402344 209.890625 160.558594 C 208.847656 161.179688 207.820312 161.863281 206.824219 162.59375 C 205.832031 163.328125 204.878906 164.121094 203.988281 164.941406 C 203.558594 165.371094 203.132812 165.796875 202.714844 166.21875 L 202.402344 166.535156 C 202.300781 166.644531 202.207031 166.757812 202.109375 166.871094 C 201.921875 167.09375 201.730469 167.316406 201.542969 167.535156 C 200.761719 168.390625 200.136719 169.328125 199.5 170.179688 L 199.382812 170.339844 L 199.28125 170.503906 C 199.210938 170.617188 199.144531 170.726562 199.078125 170.835938 C 198.945312 171.050781 198.8125 171.265625 198.683594 171.476562 C 198.554688 171.691406 198.429688 171.898438 198.304688 172.101562 C 198.242188 172.207031 198.183594 172.292969 198.117188 172.410156 C 198.058594 172.515625 198.003906 172.617188 197.949219 172.71875 C 197.511719 173.535156 197.140625 174.300781 196.886719 175.015625 C 196.746094 175.363281 196.652344 175.707031 196.554688 176.019531 C 196.464844 176.332031 196.410156 176.632812 196.347656 176.894531 C 196.257812 177.433594 196.199219 177.863281 196.203125 178.144531 C 196.195312 178.246094 196.191406 178.328125 196.191406 178.394531 C 195.589844 178.226562 195.082031 177.996094 194.6875 177.710938 C 193.910156 175.90625 193.761719 173.855469 194.085938 171.910156 C 194.4375 169.796875 195.324219 167.796875 196.441406 165.964844 C 197.269531 164.601562 198.222656 163.324219 199.207031 162.066406 C 200.1875 161.042969 201.277344 159.992188 202.46875 158.917969 C 206.160156 155.59375 210.605469 153.132812 214.980469 151.988281 C 218.867188 150.972656 222.15625 151.210938 223.558594 152.609375 C 223.925781 152.976562 224.238281 153.367188 224.5 153.777344 C 225.058594 154.761719 225.371094 155.90625 225.394531 157.03125 C 225.425781 158.816406 224.867188 160.542969 224.046875 162.152344 C 223.839844 162.542969 223.613281 162.9375 223.359375 163.339844 L 223.359375 163.335938 C 223.359375 163.335938 223.28125 163.324219 223.125 163.300781 C 222.972656 163.277344 222.742188 163.234375 222.433594 163.210938 C 221.820312 163.152344 220.917969 163.117188 219.777344 163.289062 C 218.648438 163.460938 217.28125 163.84375 215.882812 164.640625 C 214.492188 165.425781 213.078125 166.65625 212.042969 168.351562 C 211.527344 169.195312 211.101562 170.140625 210.800781 171.164062 C 210.515625 172.191406 210.34375 173.292969 210.371094 174.433594 Z M 215.8125 170.574219 C 216.332031 170.253906 216.933594 170.074219 217.542969 170.0625 C 217.0625 170.503906 216.558594 170.953125 216.035156 171.402344 C 215.945312 171.125 215.871094 170.847656 215.8125 170.574219 Z M 215.671875 169.390625 C 215.664062 169.105469 215.679688 168.824219 215.710938 168.546875 C 216.308594 166.804688 217.507812 165.367188 218.9375 164.875 C 220.167969 164.449219 221.484375 164.214844 222.792969 164.195312 C 221.546875 166 219.867188 167.890625 217.78125 169.839844 C 217.078125 169.808594 216.371094 169.984375 215.765625 170.339844 C 215.710938 170.019531 215.675781 169.699219 215.671875 169.390625 Z M 220.257812 178.042969 C 220.449219 177.890625 220.726562 177.667969 221.074219 177.363281 C 221.25 177.214844 221.4375 177.042969 221.636719 176.855469 C 221.84375 176.671875 222.0625 176.46875 222.289062 176.242188 C 222.75 175.800781 223.246094 175.277344 223.769531 174.691406 C 224.285156 174.097656 224.824219 173.441406 225.359375 172.71875 C 225.703125 172.246094 226.046875 171.75 226.382812 171.230469 C 226.433594 171.246094 226.507812 171.273438 226.609375 171.3125 C 226.808594 171.378906 227.097656 171.484375 227.460938 171.625 C 227.824219 171.765625 228.261719 171.945312 228.761719 172.164062 C 229.257812 172.386719 229.8125 172.648438 230.40625 172.957031 C 231.003906 173.261719 231.632812 173.621094 232.289062 174.019531 C 232.941406 174.417969 233.613281 174.867188 234.289062 175.359375 C 235.640625 176.339844 237.003906 177.5 238.242188 178.777344 C 239.488281 180.054688 240.609375 181.441406 241.550781 182.816406 C 242.023438 183.5 242.445312 184.1875 242.824219 184.851562 C 243.199219 185.515625 243.542969 186.148438 243.796875 186.753906 C 244.054688 187.363281 244.242188 187.933594 244.363281 188.449219 C 244.484375 188.964844 244.539062 189.421875 244.554688 189.792969 C 244.570312 190.167969 244.539062 190.460938 244.515625 190.65625 C 244.496094 190.757812 244.484375 190.832031 244.476562 190.882812 C 244.234375 190.90625 243.988281 190.921875 243.742188 190.925781 C 242.382812 190.945312 241.015625 190.703125 239.671875 190.371094 C 236.980469 189.699219 234.367188 188.714844 231.941406 187.464844 C 229.507812 186.226562 227.257812 184.730469 225.25 183.082031 C 223.34375 181.523438 221.65625 179.828125 220.207031 178.082031 C 220.226562 178.070312 220.238281 178.058594 220.257812 178.042969 Z M 226.925781 170.359375 C 227.429688 169.515625 227.902344 168.617188 228.335938 167.683594 C 228.703125 166.894531 229.039062 166.070312 229.316406 165.222656 C 229.332031 165.230469 229.347656 165.234375 229.363281 165.238281 C 229.523438 165.289062 229.765625 165.355469 230.074219 165.460938 C 230.695312 165.664062 231.597656 165.988281 232.710938 166.476562 C 233.828125 166.964844 235.148438 167.632812 236.59375 168.515625 C 238.035156 169.40625 239.59375 170.519531 241.164062 171.890625 C 242.730469 173.261719 244.3125 174.882812 245.769531 176.769531 C 246.5 177.710938 247.199219 178.714844 247.851562 179.78125 C 248.492188 180.847656 249.136719 181.96875 249.578125 183.167969 C 249.796875 183.769531 249.96875 184.390625 250.042969 185.027344 C 250.121094 185.660156 250.09375 186.3125 249.933594 186.925781 C 249.839844 187.304688 249.6875 187.664062 249.492188 188 C 249.5 187.953125 249.507812 187.910156 249.511719 187.859375 C 249.53125 187.703125 249.5625 187.535156 249.570312 187.359375 C 249.601562 187 249.613281 186.59375 249.597656 186.152344 C 249.59375 186.042969 249.585938 185.929688 249.582031 185.816406 C 249.574219 185.699219 249.5625 185.582031 249.550781 185.464844 C 249.542969 185.347656 249.527344 185.226562 249.503906 185.101562 C 249.480469 184.976562 249.472656 184.863281 249.4375 184.722656 C 249.375 184.480469 249.308594 184.234375 249.246094 183.984375 C 249.164062 183.730469 249.066406 183.472656 248.972656 183.210938 C 248.765625 182.699219 248.527344 182.183594 248.25 181.683594 C 248.121094 181.425781 247.960938 181.179688 247.816406 180.933594 C 247.664062 180.6875 247.527344 180.4375 247.363281 180.195312 C 247.039062 179.710938 246.730469 179.21875 246.386719 178.761719 C 246.21875 178.53125 246.058594 178.296875 245.890625 178.074219 C 245.71875 177.855469 245.546875 177.636719 245.378906 177.425781 C 245.054688 176.988281 244.699219 176.601562 244.378906 176.21875 C 244.21875 176.027344 244.054688 175.851562 243.894531 175.679688 C 243.734375 175.511719 243.578125 175.34375 243.429688 175.1875 C 243.285156 175.027344 243.132812 174.882812 242.988281 174.746094 C 242.847656 174.609375 242.710938 174.480469 242.585938 174.359375 C 242.457031 174.238281 242.339844 174.117188 242.222656 174.019531 C 242.109375 173.921875 242 173.828125 241.90625 173.746094 C 241.519531 173.417969 241.300781 173.230469 241.300781 173.230469 C 241.300781 173.230469 241.511719 173.429688 241.882812 173.769531 C 241.976562 173.855469 242.078125 173.953125 242.191406 174.054688 C 242.304688 174.15625 242.414062 174.28125 242.535156 174.40625 C 242.777344 174.664062 243.066406 174.933594 243.347656 175.265625 C 243.488281 175.425781 243.640625 175.597656 243.792969 175.769531 C 243.949219 175.945312 244.109375 176.125 244.257812 176.320312 C 244.566406 176.710938 244.90625 177.105469 245.21875 177.546875 C 245.378906 177.765625 245.542969 177.984375 245.707031 178.210938 C 245.867188 178.433594 246.019531 178.671875 246.179688 178.90625 C 246.507812 179.367188 246.800781 179.863281 247.101562 180.347656 C 247.257812 180.589844 247.386719 180.851562 247.53125 181.097656 C 247.667969 181.351562 247.816406 181.59375 247.9375 181.847656 C 248.199219 182.34375 248.425781 182.851562 248.613281 183.34375 C 248.695312 183.59375 248.785156 183.835938 248.859375 184.078125 C 248.921875 184.332031 248.980469 184.578125 249.039062 184.820312 C 249.066406 184.921875 249.074219 185.050781 249.09375 185.164062 C 249.113281 185.277344 249.125 185.390625 249.132812 185.503906 C 249.140625 185.617188 249.148438 185.730469 249.15625 185.839844 C 249.160156 185.949219 249.164062 186.058594 249.164062 186.164062 C 249.175781 186.589844 249.152344 186.976562 249.125 187.320312 C 249.117188 187.492188 249.085938 187.648438 249.070312 187.796875 C 249.058594 187.867188 249.050781 187.941406 249.039062 188.007812 C 249.027344 188.070312 249.011719 188.132812 249 188.191406 C 248.976562 188.304688 248.953125 188.410156 248.933594 188.5 C 248.90625 188.59375 248.878906 188.671875 248.859375 188.734375 C 248.820312 188.855469 248.796875 188.917969 248.796875 188.929688 C 248.4375 189.304688 248.027344 189.632812 247.578125 189.902344 C 247.015625 190.246094 246.390625 190.507812 245.746094 190.671875 C 245.511719 190.730469 245.273438 190.773438 245.03125 190.8125 C 245.035156 190.785156 245.039062 190.757812 245.046875 190.726562 C 245.070312 190.503906 245.101562 190.179688 245.078125 189.773438 C 245.058594 189.367188 244.996094 188.875 244.859375 188.328125 C 244.726562 187.785156 244.519531 187.1875 244.246094 186.5625 C 243.972656 185.933594 243.617188 185.289062 243.230469 184.617188 C 242.839844 183.949219 242.402344 183.257812 241.914062 182.566406 C 240.945312 181.179688 239.789062 179.789062 238.515625 178.511719 C 237.246094 177.234375 235.855469 176.074219 234.480469 175.097656 C 233.792969 174.609375 233.105469 174.160156 232.441406 173.765625 C 231.777344 173.371094 231.136719 173.015625 230.53125 172.714844 C 229.929688 172.410156 229.367188 172.152344 228.863281 171.933594 C 228.359375 171.714844 227.914062 171.542969 227.542969 171.402344 C 227.171875 171.265625 226.882812 171.164062 226.683594 171.097656 C 226.609375 171.070312 226.554688 171.050781 226.507812 171.035156 C 226.648438 170.816406 226.789062 170.589844 226.925781 170.359375 Z M 250.902344 184.996094 C 250.691406 183.878906 250.347656 183.046875 250.097656 182.496094 C 249.972656 182.222656 249.863281 182.015625 249.785156 181.878906 C 249.710938 181.742188 249.671875 181.671875 249.671875 181.671875 C 249.671875 181.671875 249.710938 181.746094 249.777344 181.882812 C 249.847656 182.023438 249.953125 182.230469 250.066406 182.511719 C 250.296875 183.066406 250.601562 183.90625 250.78125 185.015625 C 250.960938 186.121094 251.011719 187.503906 250.691406 189.03125 C 250.371094 190.546875 249.648438 192.195312 248.40625 193.652344 C 247.796875 194.382812 247.042969 195.046875 246.199219 195.625 C 245.769531 195.902344 245.316406 196.167969 244.84375 196.386719 C 244.730469 196.445312 244.597656 196.496094 244.476562 196.550781 L 244.285156 196.628906 L 244.238281 196.648438 C 244.234375 196.648438 244.21875 196.65625 244.222656 196.65625 L 244.199219 196.664062 L 244.101562 196.695312 C 243.847656 196.78125 243.589844 196.867188 243.332031 196.953125 C 242.28125 197.253906 241.175781 197.472656 240.027344 197.546875 C 239.882812 197.554688 239.738281 197.570312 239.59375 197.582031 C 239.453125 197.589844 239.304688 197.585938 239.160156 197.589844 C 238.871094 197.59375 238.578125 197.597656 238.285156 197.601562 C 237.699219 197.566406 237.101562 197.558594 236.515625 197.472656 C 235.929688 197.421875 235.324219 197.292969 234.71875 197.183594 C 234.144531 197.039062 233.53125 196.902344 232.941406 196.742188 C 231.753906 196.394531 230.5625 196.007812 229.394531 195.523438 C 229.101562 195.402344 228.808594 195.285156 228.515625 195.164062 C 228.226562 195.035156 227.941406 194.898438 227.652344 194.765625 C 227.363281 194.628906 227.070312 194.507812 226.789062 194.359375 L 225.933594 193.921875 C 225.359375 193.640625 224.8125 193.316406 224.246094 193.011719 C 223.6875 192.699219 223.136719 192.355469 222.578125 192.027344 C 220.417969 190.6875 218.449219 189.011719 216.785156 187.128906 C 215.132812 185.238281 213.769531 183.144531 212.761719 180.976562 C 212.269531 179.902344 211.828125 178.789062 211.496094 177.699219 C 211.421875 177.421875 211.34375 177.148438 211.269531 176.875 C 211.210938 176.601562 211.15625 176.332031 211.097656 176.0625 L 211.058594 175.859375 L 211.03125 175.648438 C 211.015625 175.507812 211 175.367188 210.980469 175.230469 C 210.964844 175.09375 210.945312 174.9375 210.933594 174.824219 C 210.929688 174.6875 210.921875 174.554688 210.917969 174.417969 C 210.875 173.339844 211.03125 172.285156 211.292969 171.300781 C 211.570312 170.320312 211.96875 169.410156 212.453125 168.597656 C 212.945312 167.78125 213.511719 167.078125 214.132812 166.46875 C 214.75 165.863281 215.414062 165.371094 216.078125 164.976562 C 217.414062 164.183594 218.730469 163.785156 219.828125 163.59375 C 220.929688 163.410156 221.816406 163.414062 222.410156 163.457031 C 222.707031 163.472656 222.9375 163.507812 223.09375 163.527344 C 223.152344 163.53125 223.195312 163.539062 223.230469 163.542969 C 223.191406 163.609375 223.144531 163.675781 223.101562 163.742188 L 223.105469 163.738281 C 223.105469 163.738281 223.019531 163.714844 222.855469 163.667969 C 222.691406 163.625 222.429688 163.570312 222.101562 163.53125 C 221.4375 163.472656 220.4375 163.496094 219.246094 163.875 C 218.65625 164.070312 218.007812 164.359375 217.398438 164.804688 C 216.78125 165.253906 216.207031 165.878906 215.820312 166.679688 C 215.433594 167.472656 215.222656 168.410156 215.230469 169.390625 C 215.234375 170.386719 215.484375 171.402344 215.894531 172.386719 C 216.300781 173.375 216.855469 174.335938 217.488281 175.28125 C 218.105469 176.226562 218.800781 177.183594 219.558594 178.125 C 221.074219 180 222.855469 181.84375 224.898438 183.507812 C 226.941406 185.175781 229.222656 186.691406 231.695312 187.945312 C 234.160156 189.203125 236.8125 190.199219 239.546875 190.875 C 240.914062 191.210938 242.324219 191.460938 243.753906 191.4375 C 244.464844 191.425781 245.179688 191.339844 245.871094 191.164062 C 246.570312 190.984375 247.230469 190.703125 247.84375 190.332031 C 248.449219 189.960938 249.003906 189.496094 249.449219 188.9375 C 249.894531 188.386719 250.230469 187.730469 250.402344 187.050781 C 250.578125 186.359375 250.597656 185.652344 250.511719 184.96875 C 250.425781 184.289062 250.242188 183.632812 250.007812 183.007812 C 249.773438 182.386719 249.492188 181.789062 249.1875 181.21875 C 249.035156 180.929688 248.871094 180.652344 248.71875 180.375 C 248.558594 180.097656 248.390625 179.824219 248.226562 179.554688 C 247.558594 178.476562 246.84375 177.460938 246.097656 176.511719 C 244.609375 174.617188 243.003906 172.980469 241.40625 171.613281 C 239.804688 170.246094 238.21875 169.136719 236.753906 168.253906 C 235.285156 167.375 233.945312 166.714844 232.816406 166.238281 C 231.6875 165.757812 230.773438 165.4375 230.148438 165.242188 C 229.835938 165.136719 229.589844 165.074219 229.429688 165.023438 C 229.414062 165.015625 229.402344 165.015625 229.386719 165.011719 C 229.414062 164.929688 229.441406 164.847656 229.464844 164.765625 C 229.769531 163.757812 229.964844 162.710938 230.003906 161.671875 C 230.046875 160.628906 229.925781 159.601562 229.691406 158.644531 C 229.457031 157.683594 229.101562 156.789062 228.667969 155.992188 C 228.234375 155.199219 227.722656 154.503906 227.1875 153.929688 C 226.652344 153.351562 226.09375 152.882812 225.558594 152.535156 C 225.023438 152.183594 224.523438 151.929688 224.105469 151.75 C 223.683594 151.574219 223.339844 151.464844 223.105469 151.398438 C 222.871094 151.335938 222.742188 151.300781 222.742188 151.300781 C 222.742188 151.300781 222.867188 151.339844 223.101562 151.417969 C 223.328125 151.496094 223.664062 151.625 224.078125 151.8125 C 224.488281 152.007812 224.96875 152.277344 225.480469 152.648438 C 225.992188 153.015625 226.523438 153.488281 227.035156 154.066406 C 227.542969 154.644531 228.019531 155.339844 228.417969 156.125 C 228.816406 156.910156 229.148438 157.785156 229.359375 158.722656 C 229.570312 159.65625 229.671875 160.648438 229.613281 161.652344 C 229.558594 162.652344 229.351562 163.660156 229.054688 164.640625 C 228.757812 165.625 228.367188 166.574219 227.933594 167.496094 C 227.5 168.414062 227.027344 169.296875 226.53125 170.125 C 226.03125 170.953125 225.519531 171.734375 224.996094 172.453125 C 224.472656 173.167969 223.945312 173.820312 223.441406 174.40625 C 222.925781 174.984375 222.449219 175.511719 222 175.953125 C 221.78125 176.179688 221.570312 176.382812 221.371094 176.570312 C 221.171875 176.757812 220.988281 176.929688 220.820312 177.074219 C 220.488281 177.378906 220.214844 177.609375 220.027344 177.765625 C 220.007812 177.78125 219.996094 177.792969 219.980469 177.808594 C 219.976562 177.804688 219.972656 177.800781 219.964844 177.792969 C 219.742188 177.515625 219.523438 177.238281 219.308594 176.957031 C 219.363281 176.917969 219.429688 176.871094 219.503906 176.816406 C 219.632812 176.71875 219.792969 176.601562 219.976562 176.464844 C 220.070312 176.398438 220.167969 176.328125 220.269531 176.25 C 220.371094 176.167969 220.472656 176.078125 220.582031 175.984375 C 220.796875 175.796875 221.03125 175.59375 221.277344 175.382812 C 221.40625 175.277344 221.519531 175.15625 221.640625 175.035156 C 221.761719 174.914062 221.882812 174.792969 222.007812 174.664062 C 222.253906 174.414062 222.519531 174.164062 222.753906 173.871094 C 222.992188 173.589844 223.238281 173.304688 223.484375 173.019531 C 223.707031 172.71875 223.929688 172.417969 224.152344 172.121094 C 224.378906 171.828125 224.566406 171.515625 224.753906 171.21875 C 224.9375 170.921875 225.136719 170.644531 225.289062 170.359375 C 225.441406 170.074219 225.582031 169.808594 225.71875 169.558594 C 225.785156 169.4375 225.847656 169.320312 225.90625 169.207031 C 225.960938 169.089844 226.007812 168.976562 226.054688 168.875 C 226.148438 168.664062 226.230469 168.484375 226.296875 168.335938 C 226.429688 168.035156 226.503906 167.867188 226.503906 167.867188 C 226.503906 167.867188 226.421875 168.035156 226.273438 168.324219 C 226.203125 168.472656 226.113281 168.648438 226.011719 168.851562 C 225.960938 168.953125 225.90625 169.0625 225.851562 169.175781 C 225.785156 169.285156 225.714844 169.402344 225.644531 169.519531 C 225.5 169.761719 225.347656 170.019531 225.183594 170.296875 C 225.023438 170.574219 224.8125 170.839844 224.617188 171.128906 C 224.414062 171.414062 224.21875 171.714844 223.976562 171.992188 C 223.746094 172.273438 223.515625 172.5625 223.28125 172.851562 C 223.027344 173.125 222.773438 173.394531 222.523438 173.660156 C 222.28125 173.933594 222.011719 174.171875 221.753906 174.410156 C 221.628906 174.527344 221.503906 174.640625 221.378906 174.753906 C 221.257812 174.867188 221.140625 174.984375 221.011719 175.074219 C 220.765625 175.273438 220.53125 175.457031 220.3125 175.628906 C 220.207031 175.714844 220.101562 175.796875 220.003906 175.875 C 219.898438 175.945312 219.796875 176.011719 219.703125 176.074219 C 219.511719 176.203125 219.347656 176.3125 219.210938 176.402344 C 219.128906 176.457031 219.058594 176.507812 219 176.546875 C 218.617188 176.03125 218.253906 175.519531 217.914062 175.003906 C 217.859375 174.921875 217.808594 174.84375 217.757812 174.765625 C 217.859375 174.683594 218.039062 174.550781 218.285156 174.363281 C 218.488281 174.21875 218.726562 174.023438 219 173.796875 C 219.136719 173.683594 219.285156 173.5625 219.4375 173.4375 C 219.585938 173.304688 219.742188 173.167969 219.902344 173.023438 C 220.0625 172.875 220.234375 172.730469 220.402344 172.566406 C 220.574219 172.40625 220.746094 172.234375 220.921875 172.0625 C 221.105469 171.890625 221.28125 171.707031 221.457031 171.515625 C 221.636719 171.324219 221.824219 171.136719 222.007812 170.933594 C 222.359375 170.523438 222.738281 170.109375 223.085938 169.660156 C 223.449219 169.222656 223.78125 168.75 224.125 168.285156 C 224.445312 167.804688 224.777344 167.335938 225.066406 166.847656 C 225.371094 166.367188 225.636719 165.875 225.902344 165.40625 C 226.027344 165.167969 226.144531 164.929688 226.265625 164.695312 C 226.382812 164.464844 226.496094 164.238281 226.59375 164.011719 C 226.699219 163.785156 226.796875 163.566406 226.894531 163.355469 C 226.988281 163.144531 227.066406 162.933594 227.152344 162.734375 C 227.230469 162.535156 227.308594 162.34375 227.382812 162.160156 C 227.445312 161.976562 227.507812 161.800781 227.570312 161.636719 C 227.6875 161.304688 227.789062 161.019531 227.859375 160.777344 C 228.007812 160.296875 228.089844 160.023438 228.089844 160.023438 C 228.089844 160.023438 228 160.292969 227.839844 160.769531 C 227.765625 161.007812 227.65625 161.296875 227.527344 161.621094 C 227.464844 161.785156 227.398438 161.957031 227.328125 162.140625 C 227.25 162.320312 227.167969 162.507812 227.085938 162.707031 C 226.996094 162.902344 226.914062 163.113281 226.8125 163.320312 C 226.710938 163.527344 226.605469 163.746094 226.5 163.96875 C 226.394531 164.191406 226.277344 164.414062 226.152344 164.640625 C 226.027344 164.867188 225.90625 165.101562 225.773438 165.335938 C 225.5 165.796875 225.226562 166.277344 224.910156 166.746094 C 224.609375 167.222656 224.265625 167.683594 223.9375 168.152344 C 223.585938 168.601562 223.246094 169.0625 222.875 169.488281 C 222.519531 169.925781 222.136719 170.324219 221.773438 170.722656 C 221.589844 170.914062 221.402344 171.101562 221.21875 171.285156 C 221.039062 171.46875 220.859375 171.644531 220.675781 171.808594 C 220.5 171.976562 220.324219 172.136719 220.152344 172.296875 C 219.980469 172.449219 219.808594 172.589844 219.648438 172.730469 C 219.484375 172.871094 219.328125 173.003906 219.179688 173.128906 C 219.027344 173.25 218.878906 173.363281 218.742188 173.46875 C 218.472656 173.683594 218.234375 173.867188 218.023438 174.011719 C 217.792969 174.175781 217.617188 174.300781 217.511719 174.378906 C 217.210938 173.90625 216.9375 173.433594 216.695312 172.957031 C 218.914062 171.078125 220.800781 169.164062 222.636719 166.886719 C 224.542969 164.527344 225.921875 161.726562 226.25 158.710938 C 226.429688 157.03125 226.210938 155.480469 225.355469 154.023438 C 224.839844 153.140625 224.203125 152.40625 223.410156 151.914062 C 219.789062 149.378906 209.746094 151.765625 202.171875 158.585938 C 197.722656 162.59375 192.394531 168.398438 192.265625 173.328125 C 192.222656 175.042969 192.820312 176.53125 194.042969 177.75 C 195.027344 178.730469 196.773438 179.199219 198.921875 179.199219 C 202.261719 179.199219 206.574219 178.0625 210.503906 175.949219 L 210.542969 176.136719 C 210.597656 176.425781 210.652344 176.71875 210.710938 177.007812 C 210.785156 177.289062 210.863281 177.574219 210.9375 177.859375 C 211.015625 178.144531 211.117188 178.425781 211.203125 178.710938 L 211.273438 178.921875 L 211.292969 178.976562 L 211.3125 179.035156 L 211.351562 179.136719 L 211.507812 179.554688 L 211.660156 179.972656 C 211.714844 180.113281 211.78125 180.253906 211.839844 180.394531 C 211.960938 180.671875 212.070312 180.960938 212.207031 181.234375 C 212.449219 181.757812 212.710938 182.277344 212.996094 182.789062 C 212.9375 182.808594 212.871094 182.832031 212.789062 182.859375 C 212.539062 182.941406 212.167969 183.066406 211.699219 183.214844 C 211.230469 183.367188 210.652344 183.527344 209.992188 183.714844 C 209.328125 183.898438 208.578125 184.085938 207.753906 184.257812 C 206.925781 184.425781 206.027344 184.59375 205.070312 184.703125 C 204.832031 184.730469 204.589844 184.75 204.34375 184.777344 C 204.097656 184.792969 203.847656 184.808594 203.597656 184.828125 C 203.347656 184.832031 203.097656 184.84375 202.839844 184.84375 C 202.582031 184.839844 202.304688 184.84375 202.058594 184.832031 C 201.019531 184.796875 199.945312 184.636719 198.894531 184.34375 C 197.839844 184.050781 196.808594 183.613281 195.871094 183.027344 C 194.933594 182.441406 194.089844 181.699219 193.433594 180.835938 C 192.777344 179.972656 192.300781 178.996094 192.007812 177.996094 C 191.71875 176.996094 191.605469 175.984375 191.613281 175.027344 C 191.628906 174.070312 191.777344 173.160156 191.980469 172.347656 C 192.398438 170.714844 193.0625 169.449219 193.5625 168.605469 C 193.8125 168.175781 194.03125 167.855469 194.179688 167.636719 C 194.332031 167.417969 194.414062 167.300781 194.414062 167.300781 C 194.414062 167.300781 194.328125 167.414062 194.167969 167.625 C 194.007812 167.839844 193.773438 168.152344 193.503906 168.566406 C 192.972656 169.398438 192.253906 170.644531 191.769531 172.292969 C 191.527344 173.113281 191.363281 174.03125 191.320312 175.019531 C 191.285156 176.003906 191.375 177.050781 191.652344 178.097656 C 191.925781 179.140625 192.394531 180.179688 193.074219 181.105469 C 193.753906 182.023438 194.628906 182.816406 195.601562 183.445312 C 196.578125 184.074219 197.648438 184.546875 198.742188 184.871094 C 199.835938 185.191406 200.949219 185.375 202.035156 185.425781 C 202.320312 185.445312 202.570312 185.433594 202.835938 185.441406 C 203.097656 185.4375 203.367188 185.425781 203.625 185.417969 C 203.886719 185.398438 204.140625 185.382812 204.394531 185.363281 C 204.648438 185.339844 204.894531 185.316406 205.140625 185.289062 C 206.121094 185.167969 207.039062 185.007812 207.875 184.808594 C 208.710938 184.609375 209.464844 184.398438 210.132812 184.195312 C 210.796875 183.992188 211.367188 183.785156 211.835938 183.617188 C 212.304688 183.441406 212.667969 183.300781 212.914062 183.195312 C 213.019531 183.152344 213.101562 183.117188 213.164062 183.089844 C 214.046875 184.648438 215.101562 186.144531 216.316406 187.539062 C 218.019531 189.472656 220.019531 191.1875 222.25 192.574219 C 222.808594 192.902344 223.355469 193.246094 223.921875 193.5625 L 224.777344 194.035156 L 225.207031 194.273438 L 225.640625 194.492188 L 226.507812 194.925781 C 226.796875 195.074219 227.097656 195.199219 227.390625 195.332031 C 227.683594 195.464844 227.976562 195.601562 228.273438 195.730469 C 228.570312 195.847656 228.871094 195.96875 229.167969 196.089844 C 230.359375 196.570312 231.574219 196.957031 232.785156 197.296875 C 233.085938 197.390625 233.394531 197.449219 233.699219 197.523438 C 234.007812 197.597656 234.3125 197.667969 234.621094 197.742188 C 235.226562 197.84375 235.820312 197.964844 236.445312 198.015625 C 237.0625 198.101562 237.671875 198.105469 238.273438 198.136719 C 238.578125 198.132812 238.878906 198.125 239.175781 198.121094 C 239.328125 198.113281 239.476562 198.117188 239.625 198.105469 C 239.773438 198.09375 239.921875 198.078125 240.066406 198.066406 C 241.25 197.988281 242.390625 197.730469 243.472656 197.398438 C 243.738281 197.304688 244.003906 197.210938 244.265625 197.117188 L 244.363281 197.082031 L 244.390625 197.074219 L 244.417969 197.0625 L 244.464844 197.042969 L 244.652344 196.957031 C 244.777344 196.902344 244.898438 196.855469 245.023438 196.789062 C 245.53125 196.542969 245.988281 196.261719 246.429688 195.964844 C 247.300781 195.347656 248.0625 194.644531 248.679688 193.878906 C 249.300781 193.113281 249.804688 192.308594 250.171875 191.492188 C 250.542969 190.675781 250.777344 189.859375 250.921875 189.074219 C 251.207031 187.507812 251.117188 186.105469 250.902344 184.996094 " fill-opacity="1" fill-rule="nonzero"/></g><path fill="#000000" d="M 239.296875 195.292969 C 238.675781 195.257812 237.976562 195.1875 237.21875 195.089844 C 236.457031 194.988281 235.644531 194.835938 234.789062 194.652344 C 233.933594 194.46875 233.039062 194.226562 232.128906 193.945312 C 231.214844 193.664062 230.289062 193.328125 229.363281 192.945312 C 228.441406 192.566406 227.515625 192.132812 226.632812 191.652344 C 226.179688 191.40625 225.753906 191.144531 225.316406 190.886719 C 224.890625 190.617188 224.460938 190.351562 224.054688 190.0625 C 223.234375 189.492188 222.449219 188.898438 221.722656 188.28125 C 220.992188 187.671875 220.316406 187.042969 219.691406 186.429688 C 219.539062 186.277344 219.386719 186.121094 219.234375 185.972656 C 219.089844 185.816406 218.945312 185.664062 218.804688 185.515625 C 218.519531 185.21875 218.257812 184.917969 218 184.632812 C 217.746094 184.347656 217.515625 184.0625 217.289062 183.796875 C 217.070312 183.527344 216.859375 183.269531 216.664062 183.027344 C 216.285156 182.53125 215.957031 182.101562 215.695312 181.738281 C 215.429688 181.375 215.230469 181.082031 215.09375 180.886719 C 214.957031 180.691406 214.882812 180.582031 214.882812 180.582031 C 214.882812 180.582031 214.945312 180.695312 215.0625 180.90625 C 215.179688 181.117188 215.34375 181.429688 215.582031 181.8125 C 215.808594 182.199219 216.101562 182.660156 216.453125 183.183594 C 216.632812 183.441406 216.824219 183.714844 217.023438 184.003906 C 217.238281 184.28125 217.457031 184.582031 217.695312 184.886719 C 218.179688 185.492188 218.710938 186.140625 219.324219 186.785156 C 219.621094 187.117188 219.953125 187.433594 220.277344 187.765625 C 220.621094 188.085938 220.960938 188.421875 221.332031 188.734375 C 221.691406 189.0625 222.074219 189.371094 222.460938 189.6875 C 222.859375 189.992188 223.257812 190.304688 223.683594 190.59375 C 224.097656 190.894531 224.53125 191.167969 224.964844 191.449219 C 225.40625 191.714844 225.855469 191.992188 226.308594 192.230469 C 227.230469 192.726562 228.171875 193.15625 229.121094 193.539062 C 230.074219 193.914062 231.027344 194.234375 231.964844 194.5 C 232.898438 194.769531 233.816406 194.96875 234.691406 195.128906 C 235.566406 195.289062 236.402344 195.394531 237.175781 195.457031 C 237.949219 195.523438 238.664062 195.542969 239.292969 195.539062 C 239.921875 195.535156 240.46875 195.496094 240.917969 195.457031 C 241.367188 195.414062 241.71875 195.363281 241.957031 195.324219 C 242.195312 195.285156 242.324219 195.265625 242.324219 195.265625 C 242.324219 195.265625 242.195312 195.273438 241.953125 195.289062 C 241.714844 195.308594 241.359375 195.320312 240.914062 195.328125 C 240.464844 195.332031 239.921875 195.324219 239.296875 195.292969 " fill-opacity="1" fill-rule="nonzero"/><path fill="#000000" d="M 211.734375 172.542969 C 211.8125 172.199219 211.871094 171.851562 211.96875 171.519531 C 212.046875 171.179688 212.164062 170.859375 212.265625 170.542969 C 212.324219 170.390625 212.382812 170.238281 212.441406 170.089844 C 212.472656 170.015625 212.5 169.941406 212.527344 169.871094 C 212.558594 169.796875 212.589844 169.730469 212.621094 169.660156 C 212.683594 169.519531 212.742188 169.386719 212.800781 169.253906 C 212.867188 169.128906 212.929688 169.003906 212.988281 168.886719 C 213.105469 168.648438 213.230469 168.4375 213.335938 168.25 C 213.441406 168.0625 213.539062 167.902344 213.628906 167.773438 C 213.796875 167.507812 213.890625 167.359375 213.890625 167.359375 C 213.890625 167.359375 213.78125 167.5 213.589844 167.746094 C 213.492188 167.867188 213.382812 168.019531 213.261719 168.203125 C 213.199219 168.292969 213.136719 168.390625 213.066406 168.488281 C 213 168.59375 212.941406 168.707031 212.871094 168.820312 C 212.804688 168.9375 212.734375 169.058594 212.664062 169.1875 C 212.597656 169.316406 212.53125 169.449219 212.460938 169.585938 C 212.3125 169.855469 212.207031 170.164062 212.074219 170.476562 C 211.96875 170.792969 211.84375 171.117188 211.757812 171.460938 C 211.652344 171.800781 211.585938 172.152344 211.515625 172.503906 C 211.46875 172.859375 211.40625 173.214844 211.390625 173.566406 C 211.351562 173.917969 211.359375 174.265625 211.347656 174.601562 C 211.351562 174.769531 211.367188 174.933594 211.375 175.097656 C 211.378906 175.175781 211.382812 175.257812 211.386719 175.335938 C 211.398438 175.414062 211.40625 175.492188 211.414062 175.566406 C 211.433594 175.71875 211.449219 175.867188 211.46875 176.011719 C 211.488281 176.15625 211.515625 176.292969 211.539062 176.425781 C 211.578125 176.691406 211.644531 176.925781 211.699219 177.136719 C 211.75 177.347656 211.800781 177.53125 211.851562 177.679688 C 211.953125 177.972656 212.007812 178.144531 212.007812 178.144531 C 212.007812 178.144531 211.964844 177.96875 211.894531 177.667969 C 211.851562 177.519531 211.8125 177.332031 211.777344 177.121094 C 211.757812 177.015625 211.734375 176.902344 211.714844 176.78125 C 211.691406 176.664062 211.679688 176.535156 211.660156 176.40625 C 211.644531 176.273438 211.621094 176.136719 211.605469 175.996094 C 211.597656 175.851562 211.585938 175.707031 211.574219 175.554688 C 211.539062 175.25 211.558594 174.929688 211.542969 174.601562 C 211.558594 174.269531 211.554688 173.929688 211.597656 173.585938 C 211.621094 173.238281 211.683594 172.890625 211.734375 172.542969 " fill-opacity="1" fill-rule="nonzero"/><path fill="#000000" d="M 249.320312 189.699219 C 249.289062 189.734375 249.257812 189.773438 249.222656 189.808594 C 248.742188 190.332031 248.03125 190.851562 247.113281 191.226562 C 246.199219 191.601562 245.085938 191.8125 243.871094 191.828125 C 242.65625 191.847656 241.339844 191.660156 239.980469 191.332031 C 238.621094 190.992188 237.203125 190.558594 235.773438 190.023438 C 234.34375 189.492188 232.894531 188.859375 231.464844 188.132812 C 230.039062 187.398438 228.632812 186.570312 227.285156 185.660156 C 225.9375 184.746094 224.648438 183.75 223.433594 182.707031 C 222.214844 181.667969 221.085938 180.5625 220.054688 179.4375 C 219.539062 178.878906 219.054688 178.304688 218.585938 177.738281 C 218.132812 177.171875 217.683594 176.597656 217.273438 176.039062 C 216.449219 174.910156 215.757812 173.78125 215.308594 172.65625 C 214.855469 171.535156 214.648438 170.425781 214.683594 169.445312 C 214.710938 168.460938 214.949219 167.617188 215.25 166.976562 C 215.550781 166.335938 215.914062 165.894531 216.175781 165.621094 C 216.3125 165.484375 216.417969 165.386719 216.496094 165.324219 C 216.574219 165.261719 216.613281 165.226562 216.613281 165.226562 C 216.613281 165.226562 216.570312 165.257812 216.492188 165.320312 C 216.414062 165.378906 216.300781 165.472656 216.15625 165.601562 C 215.878906 165.867188 215.492188 166.289062 215.164062 166.9375 C 214.835938 167.574219 214.5625 168.429688 214.5 169.4375 C 214.425781 170.445312 214.621094 171.59375 215.058594 172.753906 C 215.496094 173.914062 216.179688 175.082031 216.988281 176.238281 C 217.796875 177.394531 218.734375 178.558594 219.765625 179.699219 C 220.796875 180.84375 221.929688 181.964844 223.152344 183.027344 C 223.984375 183.757812 224.867188 184.453125 225.777344 185.113281 C 225.765625 185.105469 225.753906 185.097656 225.738281 185.089844 C 228.476562 187.167969 230.890625 188.894531 234.03125 190.296875 C 237.171875 191.699219 240.582031 192.640625 244.023438 192.621094 C 245.480469 192.613281 247.066406 192.296875 248.34375 191.589844 C 249.613281 190.882812 250.367188 189.363281 250.378906 187.917969 C 250.378906 187.914062 250.382812 187.914062 250.382812 187.914062 C 250.382812 187.914062 250.378906 187.914062 250.378906 187.914062 C 250.378906 187.910156 250.382812 187.902344 250.382812 187.894531 C 250.113281 188.542969 249.761719 189.160156 249.320312 189.699219 " fill-opacity="1" fill-rule="nonzero"/><path fill="#000000" d="M 232.347656 173.113281 C 232.710938 173.363281 233.125 173.636719 233.574219 173.929688 C 234.023438 174.234375 234.492188 174.578125 235 174.933594 C 235.253906 175.109375 235.5 175.3125 235.757812 175.503906 C 236.015625 175.703125 236.277344 175.902344 236.546875 176.105469 C 237.074219 176.523438 237.59375 176.984375 238.136719 177.4375 C 238.390625 177.679688 238.652344 177.925781 238.910156 178.171875 C 239.160156 178.425781 239.441406 178.652344 239.675781 178.921875 C 239.921875 179.183594 240.164062 179.445312 240.40625 179.707031 C 240.527344 179.839844 240.652344 179.964844 240.769531 180.101562 C 240.878906 180.238281 240.988281 180.378906 241.097656 180.515625 C 241.320312 180.789062 241.539062 181.0625 241.753906 181.332031 C 241.972656 181.597656 242.160156 181.886719 242.363281 182.15625 C 242.75 182.707031 243.117188 183.238281 243.441406 183.765625 C 243.613281 184.019531 243.757812 184.285156 243.902344 184.535156 C 243.976562 184.660156 244.046875 184.785156 244.113281 184.90625 C 244.179688 185.03125 244.238281 185.152344 244.300781 185.273438 C 244.554688 185.746094 244.746094 186.203125 244.917969 186.601562 C 245.078125 187.007812 245.199219 187.371094 245.304688 187.667969 C 245.46875 188.273438 245.5625 188.621094 245.5625 188.621094 C 245.5625 188.621094 245.484375 188.269531 245.351562 187.652344 C 245.257812 187.351562 245.152344 186.984375 245.007812 186.566406 C 244.847656 186.160156 244.679688 185.691406 244.433594 185.207031 C 244.375 185.085938 244.316406 184.960938 244.253906 184.832031 C 244.1875 184.710938 244.121094 184.582031 244.050781 184.453125 C 243.910156 184.199219 243.773438 183.929688 243.605469 183.664062 C 243.292969 183.132812 242.9375 182.578125 242.554688 182.023438 C 242.351562 181.75 242.171875 181.460938 241.949219 181.1875 C 241.734375 180.914062 241.515625 180.636719 241.292969 180.355469 C 241.183594 180.21875 241.074219 180.074219 240.964844 179.933594 C 240.847656 179.796875 240.722656 179.667969 240.601562 179.535156 C 240.359375 179.269531 240.113281 179.003906 239.871094 178.734375 C 239.632812 178.460938 239.355469 178.226562 239.097656 177.976562 C 238.835938 177.730469 238.570312 177.484375 238.3125 177.242188 C 237.761719 176.789062 237.230469 176.332031 236.695312 175.914062 C 236.152344 175.515625 235.636719 175.105469 235.121094 174.761719 C 234.605469 174.421875 234.121094 174.089844 233.664062 173.796875 C 233.203125 173.511719 232.78125 173.25 232.40625 173.023438 C 232.03125 172.792969 231.695312 172.609375 231.421875 172.449219 C 230.875 172.140625 230.558594 171.960938 230.558594 171.960938 C 230.558594 171.960938 230.863281 172.15625 231.394531 172.5 C 231.65625 172.671875 231.984375 172.867188 232.347656 173.113281 " fill-opacity="1" fill-rule="nonzero"/></svg>